<svg width="21" height="15" viewBox="0 0 21 15" fill="none" xmlns="http://www.w3.org/2000/svg">
<path d="M19.0449 3.0498H1.95508C1.20312 3.0498 0.587891 2.43457 0.587891 1.68262C0.587891 0.930664 1.20312 0.31543 1.95508 0.31543H19.0449C19.7969 0.31543 20.4121 0.930664 20.4121 1.68262C20.4121 2.43457 19.7969 3.0498 19.0449 3.0498Z" fill="#231F20"/>
<path d="M19.0449 14.6846H1.95508C1.20312 14.6846 0.587891 14.0693 0.587891 13.3174C0.587891 12.5654 1.20312 11.9502 1.95508 11.9502H19.0449C19.7969 11.9502 20.4121 12.5654 20.4121 13.3174C20.4121 14.0693 19.7969 14.6846 19.0449 14.6846Z" fill="#231F20"/>
<path d="M19.0449 8.86719H1.95508C1.20312 8.86719 0.587891 8.25195 0.587891 7.5C0.587891 6.74805 1.20312 6.13281 1.95508 6.13281H19.0449C19.7969 6.13281 20.4121 6.74805 20.4121 7.5C20.4121 8.25195 19.7969 8.86719 19.0449 8.86719Z" fill="#231F20"/>
</svg>
