<svg width="35" height="35" viewBox="0 0 35 35" fill="none" xmlns="http://www.w3.org/2000/svg">
<path d="M26.9879 0H8.01124C5.77788 0 3.96289 1.81499 3.96289 4.04835V30.9516C3.96289 33.185 5.77788 35 8.01124 35H26.9879C29.2205 35 31.0363 33.185 31.0363 30.9516V4.04835C31.0363 1.81573 29.2205 0 26.9879 0ZM29.6868 30.9516C29.6868 32.4401 28.4749 33.6505 26.9879 33.6505H8.01124C6.52275 33.6505 5.31238 32.44 5.31238 30.9516V4.04835C5.31238 2.55986 6.52286 1.34949 8.01124 1.34949H26.9879C28.475 1.34949 29.6868 2.55997 29.6868 4.04835V30.9516ZM7.42091 11.2173H27.5782V4.04835H7.42091V11.2173ZM8.77029 5.39784H26.2288V9.86791H8.77029V5.39784ZM11.8511 14.8635V16.4984C11.8511 17.084 11.3754 17.5584 10.7904 17.5584H9.15558C8.56997 17.5584 8.09628 17.0841 8.09628 16.4984V14.8635C8.09628 14.2786 8.56997 13.8042 9.15558 13.8042H10.7904C11.3754 13.8035 11.8511 14.2786 11.8511 14.8635ZM19.3777 14.8635V16.4984C19.3777 17.0834 18.902 17.5584 18.317 17.5584H16.6828C16.0972 17.5584 15.6228 17.0835 15.6228 16.4984V14.8635C15.6228 14.2779 16.0971 13.8042 16.6828 13.8042H18.317C18.902 13.8035 19.3777 14.2778 19.3777 14.8635ZM26.9036 14.8635V16.4984C26.9036 17.0834 26.4279 17.5584 25.8429 17.5584H24.2087C23.6238 17.5584 23.1481 17.0835 23.1481 16.4984V14.8635C23.1481 14.2779 23.6238 13.8042 24.2087 13.8042H25.8429C26.4279 13.8035 26.9036 14.2778 26.9036 14.8635ZM11.8511 21.4765V23.1113C11.8511 23.6963 11.3754 24.1706 10.7904 24.1706H9.15558C8.56997 24.1706 8.09628 23.6963 8.09628 23.1113V21.4765C8.09628 20.8915 8.56997 20.4172 9.15558 20.4172H10.7904C11.3754 20.4166 11.8511 20.8909 11.8511 21.4765ZM11.8511 28.0888V29.723C11.8511 30.3086 11.3754 30.783 10.7904 30.783H9.15558C8.56997 30.783 8.09628 30.3087 8.09628 29.723V28.0888C8.09628 27.5025 8.56997 27.0288 9.15558 27.0288H10.7904C11.3754 27.0289 11.8511 27.5025 11.8511 28.0888ZM19.3777 21.4759V23.1121C19.3777 23.6964 18.902 24.1707 18.317 24.1707H16.6828C16.0972 24.1707 15.6228 23.6964 15.6228 23.1121V21.4759C15.6228 20.8909 16.0971 20.4166 16.6828 20.4166H18.317C18.902 20.4158 19.3777 20.8901 19.3777 21.4759ZM19.3777 28.0882V29.723C19.3777 30.308 18.902 30.783 18.317 30.783H16.6828C16.0972 30.783 15.6228 30.308 15.6228 29.723V28.0882C15.6228 27.5026 16.0971 27.0281 16.6828 27.0281H18.317C18.902 27.0281 19.3777 27.5025 19.3777 28.0882ZM26.9036 21.4759V23.1121C26.9036 23.1141 26.9016 23.1162 26.9016 23.1188V28.0813C26.9016 28.0833 26.9036 28.0867 26.9036 28.0888V29.7236C26.9036 30.3086 26.4279 30.7837 25.8429 30.7837H24.2087C23.6224 30.7837 23.1481 30.3087 23.1481 29.7236V28.9579V28.0888V23.1121V21.9279V21.4759C23.1481 20.8909 23.6224 20.4166 24.2087 20.4166H25.8429C26.4279 20.4158 26.9036 20.8901 26.9036 21.4759Z" fill="#FF2C06"/>
</svg>
