<svg width="41" height="41" viewBox="0 0 41 41" fill="none" xmlns="http://www.w3.org/2000/svg">
<rect x="0.0683594" y="0.740234" width="39.9734" height="39.576" fill="#FFE600"/>
<path d="M28.4687 24.7001C28.6607 24.7001 28.8692 24.5599 28.911 24.3666C29.6194 21.1175 30.3282 17.8685 31.0369 14.6194C31.0993 14.3338 30.9059 14.0445 30.5946 14.0445C24.903 14.0445 19.2117 14.0445 13.5201 14.0445C12.8245 14.0445 12.1286 14.0445 11.4331 14.0445C11.298 13.4122 11.163 12.7803 11.0283 12.148C10.8734 11.4234 10.7189 10.6988 10.564 9.97385C10.5225 9.78053 10.314 9.64062 10.1213 9.64062C9.24997 9.64062 8.379 9.64062 7.50765 9.64062C6.91709 9.64062 6.91635 10.5491 7.50765 10.5491C8.25494 10.5491 9.00259 10.5491 9.75024 10.5491C10.2942 13.0961 10.8378 15.6431 11.3817 18.1904C11.3836 18.2504 11.3964 18.3092 11.4188 18.3641C11.9216 20.7185 12.4241 23.0729 12.9269 25.4273C13.0506 26.0065 13.1743 26.5858 13.298 27.165C12.4256 27.4841 11.7855 28.322 11.7855 29.2828C11.7855 30.4737 12.7658 31.4835 13.9657 31.534C15.2455 31.5882 16.2016 30.6197 16.3305 29.418C16.3404 29.3766 16.3466 29.3326 16.3441 29.2828C16.3466 29.2334 16.3408 29.1902 16.3308 29.1491C16.2828 28.6985 16.1187 28.2799 15.8629 27.9347C19.2187 27.9347 22.5741 27.9347 25.93 27.9347C25.6393 28.3137 25.4627 28.781 25.4627 29.2828C25.4627 30.4737 26.4431 31.4835 27.6429 31.534C28.9228 31.5882 29.8789 30.6197 30.0077 29.418C30.0176 29.3766 30.0239 29.3326 30.0213 29.2828C30.0239 29.2334 30.018 29.1902 30.0081 29.1491C29.8837 27.9855 28.9837 27.0262 27.742 27.0262C23.2297 27.0262 18.7173 27.0262 14.2046 27.0262C14.0391 26.2507 13.8735 25.4756 13.708 24.7001C18.6285 24.7001 23.5486 24.7001 28.4687 24.7001ZM12.4116 18.6272C13.4415 18.6272 14.4714 18.6272 15.5017 18.6272C15.8034 20.3486 16.1051 22.0703 16.4068 23.7917C15.4426 23.7917 14.4784 23.7917 13.5146 23.7917C13.1468 22.0703 12.779 20.3489 12.4116 18.6272ZM21.2513 23.7917C21.2513 22.0703 21.2513 20.3486 21.2513 18.6272C22.6318 18.6272 24.0118 18.6272 25.3922 18.6272C25.0905 20.3486 24.7888 22.0703 24.4871 23.7917C23.4084 23.7917 22.3297 23.7917 21.2513 23.7917ZM20.3337 23.7917C19.3339 23.7917 18.3338 23.7917 17.334 23.7917C17.0323 22.0703 16.7305 20.3486 16.4288 18.6272C17.7304 18.6272 19.0322 18.6272 20.3337 18.6272C20.3337 20.3489 20.3337 22.0703 20.3337 23.7917ZM28.0991 23.7917C27.2043 23.7917 26.3091 23.7917 25.4143 23.7917C25.716 22.0703 26.0177 20.3486 26.3194 18.6272C26.7283 18.6272 27.1371 18.6272 27.5464 18.6272C28.1061 18.6272 28.6658 18.6272 29.2256 18.6272C28.8501 20.3489 28.4746 22.0703 28.0991 23.7917ZM28.1362 14.953C28.7664 14.953 29.3966 14.953 30.0268 14.953C29.8257 15.8749 29.6245 16.7968 29.4238 17.7187C24.3062 17.7187 19.1886 17.7187 14.071 17.7187C13.4533 17.7187 12.8356 17.7187 12.2178 17.7187C12.0211 16.7968 11.824 15.8749 11.6273 14.953C17.1299 14.953 22.6332 14.953 28.1362 14.953ZM12.7034 29.2832C12.7034 27.5404 15.3329 27.5556 15.4268 29.2832C15.3329 31.01 12.7034 31.0253 12.7034 29.2832ZM29.1041 29.2832C29.0101 31.01 26.3807 31.0253 26.3807 29.2832C26.3803 27.5404 29.0101 27.5556 29.1041 29.2832Z" fill="black"/>
</svg>
