<svg width="21" height="21" viewBox="0 0 21 21" fill="none" xmlns="http://www.w3.org/2000/svg">
<path d="M2.625 10.9375H7.875V11.8125H2.625V10.9375Z" fill="black"/>
<path d="M2.625 8.3125H10.5V9.1875H2.625V8.3125Z" fill="black"/>
<path d="M1.75 1.3125H19.25C20.2125 1.3125 21 2.09998 21 3.0625V14.4375C21 15.4 20.2125 16.1875 19.25 16.1875H17.5V19.6875L15.3125 17.5L13.125 19.6875V16.1875H1.75C0.787523 16.1875 0 15.4 0 14.4375V3.0625C0 2.09998 0.787523 1.3125 1.75 1.3125ZM14 17.5875L15.3125 16.2749L16.625 17.5875V14.175C16.1876 14.35 15.75 14.4375 15.3125 14.4375C14.875 14.4375 14.4375 14.35 14 14.175V17.5875ZM15.3125 13.5625C16.5375 13.5625 17.5 12.6 17.5 11.375C17.5 10.15 16.5375 9.18755 15.3125 9.18755C14.0876 9.18755 13.125 10.15 13.125 11.375C13.125 12.6 14.0875 13.5625 15.3125 13.5625ZM0.875 14.4375C0.875 14.9625 1.225 15.3125 1.75 15.3125H13.125V13.475C12.6 12.9499 12.25 12.1625 12.25 11.375C12.25 9.7125 13.65 8.31245 15.3125 8.31245C16.975 8.31245 18.375 9.71245 18.375 11.375C18.375 12.25 18.025 12.95 17.5 13.475V15.3125H19.25C19.775 15.3125 20.125 14.875 20.125 14.4375V3.0625C20.125 2.5375 19.775 2.1875 19.25 2.1875H1.75C1.225 2.1875 0.875 2.62498 0.875 3.0625V14.4375Z" fill="black"/>
<path d="M2.625 5.6875H18.375V6.5625H2.625V5.6875Z" fill="black"/>
</svg>
