<svg width="24" height="22" viewBox="0 0 24 22" fill="none" xmlns="http://www.w3.org/2000/svg">
<path d="M22.1629 2.7251C20.0871 0.967843 16.4838 0 11.9787 0C7.4058 0 3.92906 0.942353 1.8258 2.7251C0.850353 3.55074 0 4.50384 0 5.87384V6.9762C0 8.0362 0.725294 8.80984 1.7578 8.80984H4.81106C5.00471 8.80984 5.19161 8.80874 5.3678 8.75424C5.36726 8.75498 5.3858 8.76969 5.38545 8.77043C2.1611 13.2816 0.545451 16.5737 0.545451 18.5269V20.0296C0.545451 21.1069 1.38345 21.9007 2.4609 21.9007H21.538C22.6156 21.9007 23.4545 21.1069 23.4545 20.0296V18.3765C23.4545 16.4204 20.9163 12.3149 18.6885 8.95659L18.6216 8.84149C18.608 8.82094 18.5963 8.77443 18.582 8.75439C18.7578 8.80859 18.9492 8.80969 19.1427 8.80969H22.1942C23.2358 8.80969 24 8.01839 24 6.97604V5.87369C24 4.81294 23.4447 3.81259 22.1629 2.7251ZM14.7267 5.29514C14.0682 5.29514 13.2727 5.56514 13.2727 6.85188V7.90094H10.7273V6.85188C10.7273 5.56533 9.932 5.29514 9.27361 5.29514C8.61435 5.29514 7.81816 5.56514 7.81816 6.85188V7.90094H6.95671C6.74835 7.90094 6.54506 7.97023 6.35161 8.03349C6.57016 7.72514 6.69996 7.36604 6.69996 6.96004C6.69996 6.19698 6.75451 5.50243 7.42541 4.62949C8.02486 3.84984 9.86306 3.33004 11.9996 3.33004C14.1682 3.33004 15.9049 3.83878 16.532 4.65439C17.1984 5.52204 17.2525 6.21949 17.2525 6.97549C17.2525 7.38023 17.3815 7.72223 17.5989 8.03023C17.4086 7.96933 17.2085 7.90114 17.0025 7.90114H16.1818V6.85204C16.1818 5.56514 15.3858 5.29514 14.7267 5.29514ZM22.7273 18.3765V20.0296C22.7273 20.706 22.2146 21.1734 21.538 21.1734H2.4609C1.78451 21.1734 1.27271 20.706 1.27271 20.0296V18.5269C1.27271 17.2904 2.0729 14.6367 5.97706 9.17439C6.20651 8.85294 6.56067 8.62804 6.95667 8.62804H8.24831C8.44902 8.62804 8.54557 8.53129 8.54557 8.33039V6.85165C8.54557 6.23165 8.73722 6.0222 9.27377 6.0222C9.81557 6.0222 10.0001 6.22365 10.0001 6.85165V8.33039C10.0001 8.53114 10.2085 8.62804 10.4092 8.62804H13.5896C13.7903 8.62804 14.0002 8.53129 14.0002 8.33039V6.85165C14.0002 6.23165 14.1914 6.0222 14.7269 6.0222C15.2633 6.0222 15.4547 6.23145 15.4547 6.85165V8.33039C15.4547 8.53114 15.5496 8.62804 15.7505 8.62804H17.0027C17.4153 8.62804 17.7973 8.86639 18.0249 9.21023L18.0827 9.34223C19.236 11.0809 22.7273 16.3889 22.7273 18.3765ZM23.2727 6.9762C23.2727 7.61749 22.8349 8.08255 22.1942 8.08255H19.1427C18.5015 8.08255 17.9798 7.5891 17.9798 6.9478C17.9798 6.08945 17.9133 5.24655 17.1087 4.1989C16.3353 3.1929 14.4255 2.59945 11.9996 2.59945C10.0996 2.59945 7.74875 3.02 6.84875 4.19074C6.04039 5.24274 5.97274 6.11529 5.97274 6.946C5.97274 7.58729 5.45165 8.08255 4.8111 8.08255H1.7578C1.1331 8.08255 0.727255 7.62835 0.727255 6.9762V5.87384C0.727255 4.86004 1.33345 4.10384 2.30635 3.28004C4.27651 1.61004 7.62196 0.727294 12.0205 0.727294C16.2907 0.727294 19.7869 1.65784 21.7033 3.28004C22.8096 4.21839 23.2727 5.04259 23.2727 5.87384V6.9762Z" fill="black"/>
<path d="M12.7264 15.3555H11.2718C11.0711 15.3555 10.9082 15.5184 10.9082 15.7191C10.9082 15.9198 11.0711 16.0827 11.2718 16.0827H12.7264C12.9271 16.0827 13.09 15.9198 13.09 15.7191C13.09 15.5184 12.9271 15.3555 12.7264 15.3555Z" fill="black"/>
<path d="M9.99985 10.9917H8.54529C8.34454 10.9917 8.18164 11.1546 8.18164 11.3553C8.18164 11.556 8.34454 11.7189 8.54529 11.7189H9.99985C10.2006 11.7189 10.3635 11.556 10.3635 11.3553C10.3635 11.1546 10.2006 10.9917 9.99985 10.9917Z" fill="black"/>
<path d="M12.7264 16.8096H11.2718C11.0711 16.8096 10.9082 16.9725 10.9082 17.1732C10.9082 17.3739 11.0711 17.5369 11.2718 17.5369H12.7264C12.9271 17.5369 13.09 17.3739 13.09 17.1732C13.09 16.9725 12.9271 16.8096 12.7264 16.8096Z" fill="black"/>
<path d="M9.99985 12.4463H8.54529C8.34454 12.4463 8.18164 12.6092 8.18164 12.8099C8.18164 13.0106 8.34454 13.1735 8.54529 13.1735H9.99985C10.2006 13.1735 10.3635 13.0106 10.3635 12.8099C10.3635 12.6092 10.2006 12.4463 9.99985 12.4463Z" fill="black"/>
<path d="M9.99985 16.8096H8.54529C8.34454 16.8096 8.18164 16.9725 8.18164 17.1732C8.18164 17.3739 8.34454 17.5369 8.54529 17.5369H9.99985C10.2006 17.5369 10.3635 17.3739 10.3635 17.1732C10.3635 16.9725 10.2006 16.8096 9.99985 16.8096Z" fill="black"/>
<path d="M9.99985 13.9009H8.54529C8.34454 13.9009 8.18164 14.0638 8.18164 14.2645C8.18164 14.4652 8.34454 14.6281 8.54529 14.6281H9.99985C10.2006 14.6281 10.3635 14.4652 10.3635 14.2645C10.3635 14.0638 10.2006 13.9009 9.99985 13.9009Z" fill="black"/>
<path d="M9.99985 15.3555H8.54529C8.34454 15.3555 8.18164 15.5184 8.18164 15.7191C8.18164 15.9198 8.34454 16.0827 8.54529 16.0827H9.99985C10.2006 16.0827 10.3635 15.9198 10.3635 15.7191C10.3635 15.5184 10.2006 15.3555 9.99985 15.3555Z" fill="black"/>
<path d="M15.4549 15.3555H14.0003C13.7996 15.3555 13.6367 15.5184 13.6367 15.7191C13.6367 15.9198 13.7996 16.0827 14.0003 16.0827H15.4549C15.6556 16.0827 15.8185 15.9198 15.8185 15.7191C15.8185 15.5184 15.6556 15.3555 15.4549 15.3555Z" fill="black"/>
<path d="M15.4549 13.9009H14.0003C13.7996 13.9009 13.6367 14.0638 13.6367 14.2645C13.6367 14.4652 13.7996 14.6281 14.0003 14.6281H15.4549C15.6556 14.6281 15.8185 14.4652 15.8185 14.2645C15.8185 14.0638 15.6556 13.9009 15.4549 13.9009Z" fill="black"/>
<path d="M12.7264 13.9009H11.2718C11.0711 13.9009 10.9082 14.0638 10.9082 14.2645C10.9082 14.4652 11.0711 14.6281 11.2718 14.6281H12.7264C12.9271 14.6281 13.09 14.4652 13.09 14.2645C13.09 14.0638 12.9271 13.9009 12.7264 13.9009Z" fill="black"/>
<path d="M15.4549 10.9917H14.0003C13.7996 10.9917 13.6367 11.1546 13.6367 11.3553C13.6367 11.556 13.7996 11.7189 14.0003 11.7189H15.4549C15.6556 11.7189 15.8185 11.556 15.8185 11.3553C15.8185 11.1546 15.6556 10.9917 15.4549 10.9917Z" fill="black"/>
<path d="M15.4549 12.4463H14.0003C13.7996 12.4463 13.6367 12.6092 13.6367 12.8099C13.6367 13.0106 13.7996 13.1735 14.0003 13.1735H15.4549C15.6556 13.1735 15.8185 13.0106 15.8185 12.8099C15.8185 12.6092 15.6556 12.4463 15.4549 12.4463Z" fill="black"/>
<path d="M12.7264 12.4463H11.2718C11.0711 12.4463 10.9082 12.6092 10.9082 12.8099C10.9082 13.0106 11.0711 13.1735 11.2718 13.1735H12.7264C12.9271 13.1735 13.09 13.0106 13.09 12.8099C13.09 12.6092 12.9271 12.4463 12.7264 12.4463Z" fill="black"/>
<path d="M15.4549 16.8096H14.0003C13.7996 16.8096 13.6367 16.9725 13.6367 17.1732C13.6367 17.3739 13.7996 17.5369 14.0003 17.5369H15.4549C15.6556 17.5369 15.8185 17.3739 15.8185 17.1732C15.8185 16.9725 15.6556 16.8096 15.4549 16.8096Z" fill="black"/>
<path d="M12.7264 10.9917H11.2718C11.0711 10.9917 10.9082 11.1546 10.9082 11.3553C10.9082 11.556 11.0711 11.7189 11.2718 11.7189H12.7264C12.9271 11.7189 13.09 11.556 13.09 11.3553C13.09 11.1546 12.9271 10.9917 12.7264 10.9917Z" fill="black"/>
</svg>
