<svg width="21" height="21" viewBox="0 0 21 21" fill="none" xmlns="http://www.w3.org/2000/svg">
<path d="M17.9226 18.4118H3.07773C2.9385 18.4118 2.80496 18.3565 2.7065 18.258C2.60805 18.1596 2.55273 18.0261 2.55273 17.8868C2.55273 17.7476 2.60805 17.614 2.7065 17.5156C2.80496 17.4171 2.9385 17.3618 3.07773 17.3618H17.9226C18.0619 17.3618 18.1954 17.4171 18.2939 17.5156C18.3923 17.614 18.4476 17.7476 18.4476 17.8868C18.4476 18.0261 18.3923 18.1596 18.2939 18.258C18.1954 18.3565 18.0619 18.4118 17.9226 18.4118Z" fill="black"/>
<path d="M10.4991 9.67594C9.79468 9.67594 9.10609 9.46705 8.52038 9.0757C7.93468 8.68434 7.47818 8.1281 7.20861 7.4773C6.93904 6.8265 6.86851 6.11039 7.00594 5.4195C7.14336 4.72862 7.48257 4.094 7.98067 3.5959C8.47877 3.09781 9.11339 2.7586 9.80427 2.62117C10.4952 2.48375 11.2113 2.55428 11.8621 2.82385C12.5129 3.09342 13.0691 3.54992 13.4605 4.13562C13.8518 4.72132 14.0607 5.40992 14.0607 6.11434C14.0585 7.05825 13.6825 7.96287 13.0151 8.63032C12.3476 9.29777 11.443 9.67372 10.4991 9.67594ZM10.4991 3.60274C10.0024 3.60274 9.51676 3.75004 9.10373 4.02602C8.6907 4.302 8.36878 4.69425 8.17869 5.15319C7.98859 5.61212 7.93885 6.11712 8.03576 6.60432C8.13267 7.09153 8.37188 7.53905 8.72313 7.89031C9.07439 8.24156 9.52191 8.48077 10.0091 8.57768C10.4963 8.67459 11.0013 8.62485 11.4602 8.43475C11.9192 8.24465 12.3114 7.92274 12.5874 7.50971C12.8634 7.09668 13.0107 6.61108 13.0107 6.11434C13.0099 5.44847 12.745 4.81012 12.2742 4.33929C11.8033 3.86845 11.165 3.60357 10.4991 3.60274Z" fill="black"/>
<path d="M15.7496 18.4116C15.6104 18.4116 15.4768 18.3563 15.3784 18.2578C15.2799 18.1594 15.2246 18.0258 15.2246 17.8866V13.6309C15.2246 12.2659 13.0606 11.1193 10.4996 11.1193C7.93866 11.1193 5.77461 12.2691 5.77461 13.6309V17.8866C5.77461 18.0258 5.7193 18.1594 5.62084 18.2578C5.52238 18.3563 5.38885 18.4116 5.24961 18.4116C5.11037 18.4116 4.97683 18.3563 4.87838 18.2578C4.77992 18.1594 4.72461 18.0258 4.72461 17.8866V13.6309C4.72461 11.6359 7.26141 10.0693 10.4996 10.0693C13.7378 10.0693 16.2746 11.6338 16.2746 13.6309V17.8866C16.2746 18.0258 16.2193 18.1594 16.1208 18.2578C16.0224 18.3563 15.8888 18.4116 15.7496 18.4116Z" fill="black"/>
</svg>
