<svg width="43" height="43" viewBox="0 0 43 43" fill="none" xmlns="http://www.w3.org/2000/svg">
<path d="M18.1424 33.8454C18.2729 27.8446 18.0286 22.1995 18.042 21.8468C18.0614 21.3445 14.7325 22.054 14.3221 21.6411C13.9118 21.2282 13.6758 18.0855 14.2204 17.8148C14.7649 17.5441 17.2194 18.0353 17.7373 17.712C18.2553 17.3888 15.4887 6.9173 26.8391 9.23137C27.1495 9.38664 26.8133 12.89 26.6323 13.1614C26.4512 13.4329 24.1502 12.8124 22.9092 13.782C21.6682 14.7515 22.1852 17.4273 22.4438 17.6083C22.7024 17.7894 26.3868 17.647 26.6323 17.9187C26.8778 18.1903 26.9166 21.5902 26.6323 21.8487C26.3479 22.1073 22.5661 21.378 22.1852 21.6421C21.8715 21.8595 23.0102 33.3683 22.6848 33.8243C22.3594 34.2804 21.1748 34.2409 20.427 34.2591" stroke="black" stroke-miterlimit="10" stroke-linecap="round" stroke-linejoin="round"/>
<path d="M21.6746 41.5307C33.5714 41.2089 42.7966 31.0858 42.0642 19.9542C41.349 9.08561 31.5134 0.889321 20.7902 1.25241C9.9193 1.62038 0.667347 10.7196 0.796253 21.6473C1.09879 38.726 17.4964 41.6883 18.2181 41.4815" stroke="black" stroke-miterlimit="10" stroke-linecap="round" stroke-linejoin="round"/>
</svg>
