<svg width="21" height="20" viewBox="0 0 21 20" fill="none" xmlns="http://www.w3.org/2000/svg">
<path d="M20.0025 17.5476C20.0025 18.2899 19.4338 18.89 18.728 18.89H6.62675C6.27062 18.888 5.84719 18.8854 5.42118 18.8795C5.0995 18.8742 5.02468 18.664 5.01406 18.4975C5.02784 18.1968 5.10046 17.7887 5.14934 17.5457C5.16183 17.4887 5.17337 17.4323 5.18445 17.374C5.18876 17.354 5.19166 17.3403 5.19166 17.3403C5.33607 16.5944 5.37358 15.8879 5.37358 15.8879H5.37263C5.37886 15.7821 5.38176 15.6894 5.38176 15.6301C5.38176 15.5719 5.38176 15.541 5.38176 15.541V2.32414C5.38176 1.5855 5.95151 0.981159 6.65592 0.981159H18.728C19.4322 0.981159 20.0019 1.5855 20.0019 2.32414V17.5476H20.0025ZM4.4065 15.0274C4.4065 15.4929 4.27653 16.7438 4.25072 16.9891C4.23919 17.0556 4.23134 17.1182 4.21756 17.1877L4.21852 17.187C4.21852 17.187 4.09896 17.9541 3.90149 18.4936C3.8236 18.7209 3.65977 18.8041 3.57279 18.8323C2.61404 19.0019 2.11447 18.6574 2.00226 18.5637C1.86138 18.4268 1.71041 18.2374 1.5641 17.9521C1.55879 17.943 1.55256 17.9355 1.54791 17.926C1.53749 17.9053 1.53123 17.8853 1.52128 17.864C1.49675 17.8132 1.4721 17.7677 1.44787 17.7114C1.43538 17.6812 1.42849 17.6538 1.41998 17.6256C1.13133 16.9479 1.00136 16.3252 1.00407 15.5731C1.00664 14.7107 1.03162 6.74426 1.03162 6.74426C1.03162 6.74426 0.964939 4.91977 2.15415 4.92732C3.1629 4.93385 3.8676 4.9383 4.06027 4.93928H4.06122C4.09504 4.93995 4.11795 4.93995 4.11795 4.93995H4.12612C4.22597 4.95009 4.40386 5.01645 4.40548 5.37133L4.40482 5.57293H4.40677L4.4065 15.0274ZM19.5473 0H5.7895C4.98558 0 4.33695 0.676225 4.33695 1.50133V3.51215C4.32878 3.68215 4.27719 3.9532 4.02908 3.95219C4.02908 3.95219 4.02908 3.95219 4.02875 3.95219C3.48557 3.9496 2.69609 3.94582 1.72887 3.94205C0.488666 3.93616 0.113621 4.84416 0 5.46551V16.3619C0 16.3619 0.0373463 17.4199 0.289113 18.0508C0.413974 18.3311 0.57183 18.6141 0.768978 18.9099C1.0868 19.3865 1.57227 19.6387 1.97006 19.7714H1.9691C1.9691 19.7714 2.15982 19.9279 3.57905 20H19.6986C20.4301 19.9217 21 19.2921 21 18.5142V1.50133C20.9993 0.676225 20.3512 0 19.5473 0Z" fill="#1C1C1C" fill-opacity="0.9"/>
<path d="M8.45971 4.0015H17.3798C17.3798 4.0015 18.0066 3.94659 17.9999 4.50027C17.9999 4.7034 17.9855 5 17.36 5C16.7363 5 8.46001 5 8.46001 5C8.46001 5 7.98544 4.92828 8.00034 4.49996C8.00681 4.25888 8.12936 4.0015 8.45971 4.0015Z" fill="#1C1C1C" fill-opacity="0.9"/>
<path d="M8.45971 9.00147H17.3798C17.3798 9.00147 18.0066 8.94707 17.9999 9.50073C17.9999 9.70378 17.9855 10 17.36 10C16.7363 10 8.46001 10 8.46001 10C8.46001 10 7.98544 9.92826 8.00034 9.5001C8.00681 9.25908 8.12936 9.00147 8.45971 9.00147Z" fill="#1C1C1C" fill-opacity="0.9"/>
<path d="M8.45937 14.0015H17.3805C17.3805 14.0015 18.0072 13.9472 17.9999 14.5009C17.9999 14.7032 17.9855 15 17.3606 15C16.7369 15 8.45968 15 8.45968 15C8.45968 15 7.98603 14.9294 8.00032 14.5009C8.00768 14.2597 8.12962 14.0015 8.45937 14.0015Z" fill="#1C1C1C" fill-opacity="0.9"/>
</svg>
