<svg width="22" height="20" viewBox="0 0 22 20" fill="none" xmlns="http://www.w3.org/2000/svg">
<path d="M9.21819 17.8952C9.61453 18.1912 9.98182 18.4552 10.3127 18.6832C10.5118 18.8209 10.6555 18.9169 10.7336 18.9677L11 19.1407L11.2655 18.9677C11.3437 18.9169 11.4873 18.8209 11.6864 18.6832C12.0173 18.4544 12.3846 18.1904 12.7809 17.8952C13.9118 17.0506 15.0436 16.1175 16.1 15.1237C18.46 12.904 20.1109 10.7048 20.7327 8.61628C20.9091 8.02508 21 7.44864 21 6.88776C21 1.31929 15.3636 -1.06192 10.9955 3.13389C6.64365 -1.06275 1 1.46609 1 6.88776C1 7.44864 1.09091 8.0259 1.26637 8.61628C1.88817 10.7048 3.5382 12.9032 5.89908 15.1237C6.95636 16.1175 8.08728 17.0498 9.21819 17.8952ZM1.90912 6.88776C1.90912 2.03922 6.84274 -0.0459625 10.6527 4.01948L11 4.38929L11.3473 4.01865C15.1573 -0.045992 20.0909 2.0384 20.0909 6.88776C20.0909 7.374 20.0109 7.87994 19.8554 8.40391C19.2818 10.3309 17.7091 12.4267 15.4445 14.5562C14.4136 15.5263 13.3073 16.4381 12.2009 17.2638C11.8145 17.5524 11 18.1534 11 18.1534C11 18.1534 10.0318 17.4376 9.79819 17.263C8.69182 16.4364 7.58636 15.5246 6.55457 14.5554C4.29091 12.4259 2.71817 10.3309 2.14363 8.40308C1.98908 7.87911 1.90912 7.374 1.90912 6.88776Z" fill="black" stroke="black" stroke-opacity="0.5"/>
</svg>
