<svg width="24" height="24" viewBox="0 0 24 24" fill="none" xmlns="http://www.w3.org/2000/svg">
<path d="M0 3.3999V4.3163V19.6835V20.5999H24V19.6835V4.3163V3.3999H0ZM14.65 12.2255L12.4716 14.4143C12.2068 14.6603 11.7924 14.6599 11.5388 14.4247L9.3496 12.2255L9.3688 12.2067L1.4588 4.1999H22.5464L14.6308 12.2071L14.65 12.2255ZM8.2096 12.2131L0.8 19.3419V4.7691L8.2096 12.2131ZM8.7736 12.7799L10.9828 14.9995C11.2664 15.2639 11.6304 15.3967 11.996 15.3967C12.3652 15.3967 12.736 15.2611 13.0284 14.9887L15.2268 12.7799L22.5216 19.7999H1.4744L8.7736 12.7799ZM15.7908 12.2135L23.2 4.7687V19.3419L15.7908 12.2135Z" fill="black"/>
</svg>
