<svg width="21" height="21" viewBox="0 0 21 21" fill="none" xmlns="http://www.w3.org/2000/svg">
<path d="M10.5 11.1563C9.46165 11.1563 8.44662 10.8483 7.58326 10.2715C6.7199 9.69459 6.04699 8.87465 5.64963 7.91534C5.25227 6.95603 5.14831 5.90043 5.35088 4.88203C5.55345 3.86363 6.05347 2.92817 6.78769 2.19394C7.52192 1.45972 8.45738 0.959702 9.47578 0.75713C10.4942 0.554557 11.5498 0.658525 12.5091 1.05588C13.4684 1.45324 14.2883 2.12615 14.8652 2.98951C15.4421 3.85287 15.75 4.8679 15.75 5.90625C15.75 7.29864 15.1969 8.634 14.2123 9.61856C13.2277 10.6031 11.8924 11.1563 10.5 11.1563ZM10.5 1.96875C9.72124 1.96875 8.95996 2.19968 8.31244 2.63234C7.66493 3.065 7.16025 3.67995 6.86223 4.39944C6.56421 5.11892 6.48623 5.91062 6.63816 6.67442C6.79009 7.43822 7.1651 8.13982 7.71577 8.69049C8.26644 9.24115 8.96803 9.61617 9.73183 9.76809C10.4956 9.92002 11.2873 9.84205 12.0068 9.54403C12.7263 9.24601 13.3413 8.74133 13.7739 8.09381C14.2066 7.44629 14.4375 6.68502 14.4375 5.90625C14.4375 4.86196 14.0227 3.86044 13.2842 3.12202C12.5458 2.38359 11.5443 1.96875 10.5 1.96875Z" fill="#101820"/>
<path d="M15.0938 20.3437H5.90625C5.03601 20.3437 4.20141 19.998 3.58606 19.3826C2.9707 18.7673 2.625 17.9327 2.625 17.0624V14.4374C2.62502 14.3236 2.65468 14.2116 2.71106 14.1127C2.76744 14.0137 2.8486 13.9312 2.94656 13.8731L6.22781 11.9043C6.37586 11.8374 6.54346 11.8278 6.69818 11.8773C6.85291 11.9269 6.98376 12.032 7.06541 12.1725C7.14707 12.3129 7.17373 12.4787 7.14023 12.6377C7.10673 12.7966 7.01545 12.9375 6.88406 13.0331L3.9375 14.8115V17.0624C3.9375 17.5846 4.14492 18.0854 4.51413 18.4546C4.88335 18.8238 5.3841 19.0312 5.90625 19.0312H15.0938C15.6159 19.0312 16.1167 18.8238 16.4859 18.4546C16.8551 18.0854 17.0625 17.5846 17.0625 17.0624V14.8115L14.1028 13.0331C14.0191 12.9953 13.9443 12.9403 13.8832 12.8718C13.8221 12.8032 13.7761 12.7226 13.7481 12.6352C13.7201 12.5477 13.7107 12.4554 13.7207 12.3641C13.7306 12.2728 13.7596 12.1846 13.8057 12.1052C13.8519 12.0258 13.9142 11.957 13.9886 11.9032C14.063 11.8494 14.1479 11.8118 14.2378 11.7929C14.3276 11.774 14.4204 11.7741 14.5102 11.7933C14.6 11.8125 14.6848 11.8503 14.7591 11.9043L18.0403 13.8731C18.1407 13.9295 18.2245 14.0114 18.2833 14.1104C18.342 14.2095 18.3736 14.3223 18.375 14.4374V17.0624C18.375 17.9327 18.0293 18.7673 17.4139 19.3826C16.7986 19.998 15.964 20.3437 15.0938 20.3437Z" fill="#101820"/>
</svg>
