<svg width="20" height="20" viewBox="0 0 20 20" fill="none" xmlns="http://www.w3.org/2000/svg">
<g clip-path="url(#clip0)">
<path d="M13.1992 10.05C13.1992 10.2 13.1492 10.3 13.0492 10.4L9.04922 14.4C8.84922 14.6 8.54922 14.6 8.34922 14.4C8.14922 14.2 8.14922 13.9 8.34922 13.7L11.9992 10.05L8.34922 6.40005C8.14922 6.20005 8.14922 5.90005 8.34922 5.70005C8.54922 5.50005 8.84922 5.50005 9.04922 5.70005L13.0492 9.70005C13.1492 9.80005 13.1992 9.95005 13.1992 10.05Z" fill="#FF2C06"/>
<path d="M20 10.05C20 15.55 15.5 20.05 10 20.05C4.5 20.05 0 15.55 0 10.05C0 7.80005 0.75 5.70005 2.1 3.90005C2.25 3.70005 2.6 3.65005 2.8 3.80005C3 4.00005 3.05 4.30005 2.9 4.50005C1.65 6.10005 1 8.00005 1 10.05C1 15 5.05 19.05 10 19.05C14.95 19.05 19 15 19 10.05C19 5.10005 14.95 1.05005 10 1.05005C8.4 1.05005 6.8 1.50005 5.4 2.30005C5.15 2.45005 4.85 2.35005 4.7 2.15005C4.55 1.90005 4.65 1.60005 4.85 1.45005C6.4 0.550051 8.15 0.0500488 9.95 0.0500488C15.5 0.0500488 20 4.50005 20 10.05Z" fill="#FF2C06"/>
</g>
<defs>
<clipPath id="clip0">
<rect width="20" height="20" fill="white" transform="translate(0 20) rotate(-90)"/>
</clipPath>
</defs>
</svg>
