<svg width="24" height="22" viewBox="0 0 24 22" fill="none" xmlns="http://www.w3.org/2000/svg">
<path d="M21.4186 15.1314C21.6107 15.1314 21.8193 14.9904 21.8611 14.7962C22.57 11.5316 23.2792 8.26708 23.9884 5.00253C24.0509 4.71554 23.8573 4.4249 23.5459 4.4249C17.8504 4.4249 12.1554 4.4249 6.45993 4.4249C5.76393 4.4249 5.06756 4.4249 4.37157 4.4249C4.23641 3.78959 4.10125 3.15465 3.96645 2.51934C3.81146 1.79128 3.65684 1.06323 3.50184 0.334816C3.46034 0.140572 3.25173 0 3.0589 0C2.18698 0 1.31542 0 0.443492 0C-0.147463 0 -0.148198 0.912803 0.443492 0.912803C1.19128 0.912803 1.93943 0.912803 2.68758 0.912803C3.23189 3.47194 3.77584 6.03107 4.32015 8.59057C4.32198 8.65082 4.33484 8.70997 4.35724 8.7651C4.86042 11.1307 5.36323 13.4963 5.8664 15.862C5.99018 16.444 6.11395 17.026 6.23772 17.608C5.36469 17.9285 4.72416 18.7705 4.72416 19.7359C4.72416 20.9324 5.70516 21.9471 6.90581 21.9978C8.18652 22.0522 9.14329 21.0792 9.2722 19.8717C9.28212 19.8301 9.28836 19.7859 9.28579 19.7359C9.28836 19.6862 9.28249 19.6428 9.27257 19.6015C9.22445 19.1488 9.06028 18.7282 8.80429 18.3813C12.1623 18.3813 15.52 18.3813 18.8781 18.3813C18.5872 18.7621 18.4105 19.2317 18.4105 19.7359C18.4105 20.9324 19.3915 21.9471 20.5922 21.9978C21.8729 22.0522 22.8297 21.0792 22.9586 19.8717C22.9685 19.8301 22.9747 19.7859 22.9722 19.7359C22.9747 19.6862 22.9689 19.6428 22.9589 19.6015C22.8344 18.4324 21.9339 17.4685 20.6913 17.4685C16.176 17.4685 11.6606 17.4685 7.14491 17.4685C6.97926 16.6893 6.81362 15.9105 6.64798 15.1314C11.5717 15.1314 16.4952 15.1314 21.4186 15.1314ZM5.35074 9.02945C6.38133 9.02945 7.41192 9.02945 8.44288 9.02945C8.74479 10.759 9.04669 12.489 9.3486 14.2186C8.38375 14.2186 7.4189 14.2186 6.45442 14.2186C6.0864 12.489 5.71839 10.7594 5.35074 9.02945ZM14.1963 14.2186C14.1963 12.489 14.1963 10.759 14.1963 9.02945C15.5777 9.02945 16.9587 9.02945 18.34 9.02945C18.0381 10.759 17.7362 12.489 17.4343 14.2186C16.3549 14.2186 15.2754 14.2186 14.1963 14.2186ZM13.2781 14.2186C12.2777 14.2186 11.2768 14.2186 10.2763 14.2186C9.97444 12.489 9.67254 10.759 9.37063 9.02945C10.673 9.02945 11.9758 9.02945 13.2781 9.02945C13.2781 10.7594 13.2781 12.489 13.2781 14.2186ZM21.0487 14.2186C20.1533 14.2186 19.2575 14.2186 18.362 14.2186C18.664 12.489 18.9659 10.759 19.2678 9.02945C19.6769 9.02945 20.0861 9.02945 20.4956 9.02945C21.0557 9.02945 21.6158 9.02945 22.1759 9.02945C21.8002 10.7594 21.4244 12.489 21.0487 14.2186ZM21.0858 5.33771C21.7164 5.33771 22.347 5.33771 22.9777 5.33771C22.7764 6.26402 22.5751 7.19033 22.3742 8.11664C17.2532 8.11664 12.1322 8.11664 7.01122 8.11664C6.39308 8.11664 5.77495 8.11664 5.15681 8.11664C4.95995 7.19033 4.76272 6.26402 4.56586 5.33771C10.0721 5.33771 15.5792 5.33771 21.0858 5.33771ZM5.64273 19.7363C5.64273 17.9851 8.27393 18.0005 8.36796 19.7363C8.27393 21.4713 5.64273 21.4867 5.64273 19.7363ZM22.0543 19.7363C21.9603 21.4713 19.3291 21.4867 19.3291 19.7363C19.3287 17.9851 21.9603 18.0005 22.0543 19.7363Z" fill="black"/>
</svg>
