<svg width="15" height="15" viewBox="0 0 15 15" fill="none" xmlns="http://www.w3.org/2000/svg">
<path d="M7.5 9.48594C7.275 9.48594 7.125 9.33594 7.125 9.11094V7.46094C7.125 7.23594 7.275 7.08594 7.5 7.08594C8.325 7.08594 9 6.41094 9 5.58594C9 4.76094 8.325 4.08594 7.5 4.08594C6.675 4.08594 6 4.76094 6 5.58594C6 5.81094 5.85 5.96094 5.625 5.96094C5.4 5.96094 5.25 5.81094 5.25 5.58594C5.25 4.34844 6.2625 3.33594 7.5 3.33594C8.7375 3.33594 9.75 4.34844 9.75 5.58594C9.75 6.71094 8.925 7.61094 7.875 7.79844V9.11094C7.875 9.33594 7.725 9.48594 7.5 9.48594Z" fill="#FF2C06"/>
<path d="M7.5 15C3.375 15 0 11.625 0 7.5C0 3.375 3.375 0 7.5 0C9.1875 0 10.7625 0.5625 12.1125 1.575C12.2625 1.6875 12.3 1.95 12.1875 2.1C12.075 2.25 11.8125 2.2875 11.6625 2.175C10.4625 1.2375 9 0.75 7.5 0.75C3.7875 0.75 0.75 3.7875 0.75 7.5C0.75 11.2125 3.7875 14.25 7.5 14.25C11.2125 14.25 14.25 11.2125 14.25 7.5C14.25 6.3 13.9125 5.1 13.3125 4.05C13.2 3.8625 13.275 3.6375 13.425 3.525C13.6125 3.4125 13.8375 3.4875 13.95 3.6375C14.625 4.8375 15 6.15 15 7.5C15 11.625 11.625 15 7.5 15Z" fill="#FF2C06"/>
<path d="M7.5 12.1883C7.275 12.1883 7.125 12.0383 7.125 11.8133V10.8008C7.125 10.5758 7.275 10.4258 7.5 10.4258C7.725 10.4258 7.875 10.5758 7.875 10.8008V11.8133C7.875 12.0383 7.725 12.1883 7.5 12.1883Z" fill="#FF2C06"/>
</svg>
