<svg width="43" height="43" viewBox="0 0 43 43" fill="none" xmlns="http://www.w3.org/2000/svg">
<path d="M22.8646 41.4646C34.7164 40.3806 43.2734 29.6869 41.8287 18.625C40.4182 7.82476 30.0771 0.27593 19.3992 1.32593C8.57421 2.39019 -0.0752045 12.064 0.754288 22.9611C2.15136 39.9853 18.7053 41.89 19.4121 41.6375" stroke="black" stroke-miterlimit="10" stroke-linecap="round" stroke-linejoin="round"/>
<path d="M15.6502 15.9814C15.5897 15.5402 16.9721 15.057 18.2116 14.8738C20.4672 14.5404 22.3563 15.4969 22.5034 16.0506C22.6504 16.6045 22.3477 22.0728 23.2649 22.1424C24.1821 22.2117 26.8127 16.293 27.4184 15.7736C28.0241 15.2545 33.5793 15.4101 33.5793 15.9812C33.5793 16.5523 28.8635 22.0123 28.8721 22.9037C28.8807 23.7949 34.3409 28.4502 33.8563 29.134C33.3717 29.8176 27.5534 29.8449 27.2799 29.6185C27.0065 29.3922 24.8139 26.0969 23.6803 26.2957C22.5467 26.4947 23.3254 29.5664 22.9881 29.9646C22.6508 30.3629 20.7209 30.2762 19.1807 30.034C10.995 28.4937 6.07993 16.2756 6.51274 15.6353C6.94536 14.9951 11.9643 15.3238 12.4661 15.7047C12.9678 16.0855 14.9409 23.2502 17.1733 22.6271C17.7704 22.3416 17.5194 17.5045 17.5194 17.5045" stroke="black" stroke-miterlimit="10" stroke-linecap="round" stroke-linejoin="round"/>
</svg>
