<svg width="36" height="36" viewBox="0 0 36 36" fill="none" xmlns="http://www.w3.org/2000/svg">
<path d="M28.589 35.2059H7.41257C5.65746 35.2059 3.97424 34.5087 2.73319 33.2676C1.49214 32.0266 0.794922 30.3433 0.794922 28.5882V10.0588C0.794922 9.7078 0.934365 9.37115 1.18257 9.12294C1.43078 8.87473 1.76743 8.73529 2.11845 8.73529H28.589C30.3441 8.73529 32.0274 9.4325 33.2684 10.6736C34.5095 11.9146 35.2067 13.5978 35.2067 15.3529V28.5882C35.2067 30.3433 34.5095 32.0266 33.2684 33.2676C32.0274 34.5087 30.3441 35.2059 28.589 35.2059V35.2059ZM3.44198 11.3823V28.5882C3.44198 29.6413 3.86031 30.6512 4.60494 31.3959C5.34957 32.1405 6.3595 32.5588 7.41257 32.5588H28.589C29.6421 32.5588 30.652 32.1405 31.3967 31.3959C32.1413 30.6512 32.5596 29.6413 32.5596 28.5882V15.3529C32.5596 14.2999 32.1413 13.2899 31.3967 12.5453C30.652 11.8007 29.6421 11.3823 28.589 11.3823H3.44198Z" fill="black"/>
<path d="M31.2362 11.3824C30.8852 11.3824 30.5486 11.243 30.3004 10.9948C30.0522 10.7466 29.9127 10.4099 29.9127 10.0589V6.4192C29.9381 5.95555 29.8584 5.49216 29.6797 5.06361C29.5009 4.63506 29.2277 4.2524 28.8804 3.9442C28.5683 3.7104 28.2071 3.55076 27.8241 3.47737C27.4411 3.40399 27.0465 3.4188 26.6701 3.52067L4.47448 8.56332C4.17592 8.63055 3.90988 8.79918 3.72166 9.0405C3.53343 9.28181 3.43465 9.5809 3.44213 9.88685C3.44213 10.2379 3.30268 10.5745 3.05447 10.8227C2.80626 11.0709 2.46962 11.2104 2.1186 11.2104C1.76758 11.2104 1.43093 11.0709 1.18272 10.8227C0.934511 10.5745 0.795068 10.2379 0.795068 9.88685C0.787302 8.98207 1.08879 8.10178 1.6496 7.39173C2.21042 6.68168 2.99693 6.18448 3.87889 5.98244L26.0877 0.939787C26.8515 0.746652 27.6494 0.730924 28.4202 0.893807C29.1911 1.05669 29.9144 1.39386 30.5348 1.87949C31.1907 2.43622 31.7133 3.1332 32.0638 3.91895C32.4143 4.70471 32.5838 5.55916 32.5598 6.4192V10.0589C32.5598 10.4099 32.4203 10.7466 32.1721 10.9948C31.9239 11.243 31.5873 11.3824 31.2362 11.3824Z" fill="black"/>
<path d="M33.883 27.2647H24.6183C23.2142 27.2647 21.8677 26.707 20.8748 25.7141C19.882 24.7213 19.3242 23.3747 19.3242 21.9706C19.3242 20.5665 19.882 19.22 20.8748 18.2271C21.8677 17.2343 23.2142 16.6765 24.6183 16.6765H33.883C34.2341 16.6765 34.5707 16.816 34.8189 17.0642C35.0671 17.3124 35.2066 17.649 35.2066 18V25.9412C35.2066 26.2922 35.0671 26.6289 34.8189 26.8771C34.5707 27.1253 34.2341 27.2647 33.883 27.2647ZM24.6183 19.3236C23.9163 19.3236 23.243 19.6025 22.7466 20.0989C22.2502 20.5953 21.9713 21.2686 21.9713 21.9706C21.9713 22.6727 22.2502 23.346 22.7466 23.8424C23.243 24.3388 23.9163 24.6177 24.6183 24.6177H32.5595V19.3236H24.6183Z" fill="black"/>
</svg>
