<svg width="20" height="20" viewBox="0 0 20 20" fill="none" xmlns="http://www.w3.org/2000/svg">
<g clip-path="url(#clip0)">
<path d="M9.94922 13.1997C9.79922 13.1997 9.69922 13.1497 9.59922 13.0497L5.59922 9.04971C5.39922 8.84971 5.39922 8.54971 5.59922 8.34971C5.79922 8.14971 6.09922 8.14971 6.29922 8.34971L9.94922 11.9997L13.5992 8.34971C13.7992 8.14971 14.0992 8.14971 14.2992 8.34971C14.4992 8.54971 14.4992 8.84971 14.2992 9.04971L10.2992 13.0497C10.1992 13.1497 10.0492 13.1997 9.94922 13.1997Z" fill="#FF2C06"/>
<path d="M9.94922 20C4.44922 20 -0.0507812 15.5 -0.0507812 10C-0.0507812 4.5 4.44922 0 9.94922 0C12.1992 0 14.2992 0.75 16.0992 2.1C16.2992 2.25 16.3492 2.6 16.1992 2.8C15.9992 3 15.6992 3.05 15.4992 2.9C13.8992 1.65 11.9992 1 9.94922 1C4.99922 1 0.949219 5.05 0.949219 10C0.949219 14.95 4.99922 19 9.94922 19C14.8992 19 18.9492 14.95 18.9492 10C18.9492 8.4 18.4992 6.8 17.6992 5.4C17.5492 5.15 17.6492 4.85 17.8492 4.7C18.0992 4.55 18.3992 4.65 18.5492 4.85C19.4492 6.4 19.9492 8.15 19.9492 9.95C19.9492 15.5 15.4992 20 9.94922 20Z" fill="#FF2C06"/>
</g>
<defs>
<clipPath id="clip0">
<rect width="20" height="20" fill="white"/>
</clipPath>
</defs>
</svg>
