<svg width="66" height="71" viewBox="0 0 66 71" fill="none" xmlns="http://www.w3.org/2000/svg">
<path d="M16.871 22C14.7329 22 13 23.7092 13 25.8181C13 27.927 14.7329 29.6363 16.871 29.6363C19.0091 29.6363 20.742 27.927 20.742 25.8181C20.742 23.7092 19.009 22 16.871 22ZM16.871 32.1818C14.7329 32.1818 13 33.8911 13 36C13 38.1089 14.7329 39.8182 16.871 39.8182C19.0091 39.8182 20.742 38.1089 20.742 36C20.742 33.8911 19.009 32.1818 16.871 32.1818ZM16.871 42.3636C14.7329 42.3636 13 44.0729 13 46.1818C13 48.2907 14.7329 50 16.871 50C19.0091 50 20.742 48.2907 20.742 46.1818C20.742 44.0729 19.009 42.3636 16.871 42.3636ZM25.9032 28.3636H50.4193C51.8452 28.3636 53 27.2245 53 25.8181C53 24.4118 51.8452 23.2727 50.4193 23.2727H25.9032C24.4774 23.2727 23.3226 24.4118 23.3226 25.8181C23.3226 27.2245 24.4774 28.3636 25.9032 28.3636ZM50.4194 33.4545H25.9032C24.4774 33.4545 23.3226 34.5936 23.3226 36C23.3226 37.4063 24.4774 38.5454 25.9032 38.5454H50.4193C51.8452 38.5454 53 37.4063 53 36C53.0001 34.5936 51.8452 33.4545 50.4194 33.4545ZM50.4194 43.6363H25.9032C24.4774 43.6363 23.3226 44.7754 23.3226 46.1817C23.3226 47.5881 24.4774 48.7271 25.9032 48.7271H50.4193C51.8452 48.7271 53 47.5881 53 46.1817C53 44.7754 51.8452 43.6363 50.4194 43.6363Z" fill="#BAB4B4"/>
</svg>
