<svg width="66" height="71" viewBox="0 0 66 71" fill="none" xmlns="http://www.w3.org/2000/svg">
<path d="M13 20.5161C13 23.0103 15.0219 25.0323 17.5161 25.0323C20.0103 25.0323 22.0323 23.0103 22.0323 20.5161C22.0323 18.0219 20.0103 16 17.5161 16C15.0219 16 13 18.0219 13 20.5161Z" fill="black"/>
<path d="M28.4844 20.5161C28.4844 23.0103 30.5063 25.0323 33.0005 25.0323C35.4947 25.0323 37.5166 23.0103 37.5166 20.5161C37.5166 18.0219 35.4947 16 33.0005 16C30.5063 16 28.4844 18.0219 28.4844 20.5161Z" fill="black"/>
<path d="M48.4849 16C45.9907 16 43.9688 18.0219 43.9688 20.5161C43.9688 23.0103 45.9907 25.0323 48.4849 25.0323C50.9791 25.0323 53.001 23.0103 53.001 20.5161C53.001 18.0219 50.9791 16 48.4849 16Z" fill="black"/>
<path d="M13 36C13 38.4942 15.0219 40.5161 17.5161 40.5161C20.0103 40.5161 22.0323 38.4942 22.0323 36C22.0323 33.5058 20.0103 31.4839 17.5161 31.4839C15.0219 31.4839 13 33.5058 13 36Z" fill="black"/>
<path d="M28.4844 36C28.4844 38.4942 30.5063 40.5161 33.0005 40.5161C35.4947 40.5161 37.5166 38.4942 37.5166 36C37.5166 33.5058 35.4947 31.4839 33.0005 31.4839C30.5063 31.4839 28.4844 33.5058 28.4844 36Z" fill="black"/>
<path d="M43.9688 36C43.9688 38.4942 45.9907 40.5161 48.4849 40.5161C50.9791 40.5161 53.001 38.4942 53.001 36C53.001 33.5058 50.9791 31.4839 48.4849 31.4839C45.9907 31.4839 43.9688 33.5058 43.9688 36Z" fill="black"/>
<path d="M13 51.4839C13 53.9781 15.0219 56 17.5161 56C20.0103 56 22.0323 53.9781 22.0323 51.4839C22.0323 48.9897 20.0103 46.9678 17.5161 46.9678C15.0219 46.9678 13 48.9897 13 51.4839Z" fill="black"/>
<path d="M28.4844 51.4839C28.4844 53.9781 30.5063 56 33.0005 56C35.4947 56 37.5166 53.9781 37.5166 51.4839C37.5166 48.9897 35.4947 46.9678 33.0005 46.9678C30.5063 46.9678 28.4844 48.9897 28.4844 51.4839Z" fill="black"/>
<path d="M43.9688 51.4839C43.9688 53.9781 45.9907 56 48.4849 56C50.9791 56 53.001 53.9781 53.001 51.4839C53.001 48.9897 50.9791 46.9678 48.4849 46.9678C45.9907 46.9678 43.9688 48.9897 43.9688 51.4839Z" fill="black"/>
</svg>
