<svg width="66" height="71" viewBox="0 0 66 71" fill="none" xmlns="http://www.w3.org/2000/svg">
<path d="M50.2414 26.3283H15.7586C14.2414 26.3283 13 25.1294 13 23.6641C13 22.1989 14.2414 21 15.7586 21H50.2414C51.7586 21 53 22.1989 53 23.6641C53 25.1294 51.7586 26.3283 50.2414 26.3283Z" fill="#BAB4B4"/>
<path d="M50.2414 49.0001H15.7586C14.2414 49.0001 13 47.8013 13 46.336C13 44.8707 14.2414 43.6719 15.7586 43.6719H50.2414C51.7586 43.6719 53 44.8707 53 46.336C53 47.8013 51.7586 49.0001 50.2414 49.0001Z" fill="#BAB4B4"/>
<path d="M50.2414 37.6642H15.7586C14.2414 37.6642 13 36.4653 13 35.0001C13 33.5348 14.2414 32.3359 15.7586 32.3359H50.2414C51.7586 32.3359 53 33.5348 53 35.0001C53 36.4653 51.7586 37.6642 50.2414 37.6642Z" fill="#BAB4B4"/>
</svg>
