<svg width="14" height="18" viewBox="0 0 14 18" fill="none" xmlns="http://www.w3.org/2000/svg">
<path d="M2.625 15.5438H7.87499C7.87499 15.2615 7.91349 14.9874 7.98524 14.7256H2.625V15.5438Z" fill="black"/>
<path d="M12.25 17.998V16.3616H14V14.7252H12.25V13.0889H10.5V14.7252H8.75V16.3616H10.5V17.998H12.25Z" fill="black"/>
<path d="M11.375 12.2744H2.625V13.0926H9.05975C9.67662 12.5837 10.4878 12.2744 11.375 12.2744Z" fill="black"/>
<path d="M11.375 4.91113H2.625V5.72931H11.375V4.91113Z" fill="black"/>
<path d="M11.375 9.81738H2.625V10.6356H11.375V9.81738Z" fill="black"/>
<path d="M14 3.6L10.1815 0H0.424375C0.424375 0 0 0 0 0.400091V17.5991C0 18 0.424375 18 0.424375 18H9.05975C8.77625 17.766 8.53388 17.4895 8.34313 17.1818H0.875V0.818182H9.625V3.27273C9.625 4.09091 10.5 4.09091 10.5 4.09091H13.125V12.7105C13.454 12.8888 13.7498 13.1155 14 13.3805V3.6Z" fill="black"/>
<path d="M7.875 2.45215H2.625V3.27033H7.875V2.45215Z" fill="black"/>
<path d="M11.375 7.36328H2.625V8.18146H11.375V7.36328Z" fill="black"/>
</svg>
