<svg width="18" height="20" viewBox="0 0 18 20" fill="none" xmlns="http://www.w3.org/2000/svg">
<path d="M1.60684 7.33333C1.44162 7.33333 1.30725 7.462 1.29054 7.63333L0.00605492 18.96C-0.060805 19.5507 0.436787 20 0.96781 20H17.0322C17.5626 20 18.0608 19.5507 17.994 18.96L16.7095 7.63333C16.6593 7.19067 16.0203 7.26933 16.0704 7.71067L17.3562 19.0393C17.3723 19.182 17.2148 19.3327 17.0322 19.3327H0.96781C0.785873 19.3327 0.627081 19.182 0.643796 19.0393L1.92956 7.71C1.95528 7.51 1.80099 7.33333 1.60684 7.33267V7.33333ZM9 2.66667C7.58373 2.66667 6.42847 3.86467 6.42847 5.33333C6.42847 6.802 7.58373 8 9 8C10.4163 8 11.5715 6.802 11.5715 5.33333C11.5715 3.86467 10.4163 2.66667 9 2.66667ZM9 3.33333C10.0691 3.33333 10.9287 4.22467 10.9287 5.33333C10.9287 6.442 10.0691 7.33333 9 7.33333C7.93089 7.33333 7.07135 6.442 7.07135 5.33333C7.07135 4.22467 7.93089 3.33333 9 3.33333ZM9 0C6.1636 0 3.85693 2.392 3.85693 5.33333C3.85693 7.45 4.90033 9.73533 6.02988 11.5167C6.59369 12.408 7.18064 13.17 7.68659 13.72C7.93924 13.9947 8.16875 14.2153 8.37576 14.376C8.58149 14.5373 8.73578 14.6667 8.99936 14.6667C9.26294 14.6667 9.41723 14.5373 9.62296 14.376C9.82997 14.216 10.0601 13.9947 10.3128 13.72C10.8181 13.1707 11.4057 12.408 11.9701 11.5167C13.1003 9.73533 14.1431 7.45 14.1431 5.33333C14.1431 2.392 11.8364 0 9 0ZM9 0.666667C11.4893 0.666667 13.5002 2.752 13.5002 5.33333C13.5002 7.21667 12.5217 9.43133 11.4333 11.15C10.8894 12.0087 10.3192 12.746 9.84732 13.2593C9.61203 13.5147 9.39923 13.7167 9.23658 13.8447C9.0405 13.9933 8.91836 13.9673 8.76406 13.8447C8.60077 13.7167 8.38798 13.5147 8.15332 13.258C7.6808 12.7447 7.11057 12.008 6.56669 11.1493C5.47828 9.43133 4.49981 7.21667 4.49981 5.33333C4.49981 2.752 6.51076 0.666667 9 0.666667Z" fill="#FF2C06"/>
</svg>
